<!DOCTYPE svg PUBLIC "-//W3C//DTD SVG 1.1//EN" "http://www.w3.org/Graphics/SVG/1.1/DTD/svg11.dtd">

<!-- Uploaded to: SVG Repo, www.svgrepo.com, Transformed by: SVG Repo Mixer Tools -->
<svg fill="#000000" version="1.1" id="Layer_1" xmlns="http://www.w3.org/2000/svg" xmlns:xlink="http://www.w3.org/1999/xlink" viewBox="0 0 512 512" enable-background="new 0 0 512 512" xml:space="preserve" transform="rotate(90)">

<g id="SVGRepo_bgCarrier" stroke-width="0"/>

<g id="SVGRepo_tracerCarrier" stroke-linecap="round" stroke-linejoin="round"/>

<g id="SVGRepo_iconCarrier"> <g> 
<path d="M351.938,224C334.266,224,320,238.297,320,255.969S334.266,288,351.938,288C369.672,288,384,273.641,384,255.969 S369.672,224,351.938,224z"/> 
<path d="M255.938,224C238.266,224,224,238.297,224,255.969S238.266,288,255.938,288C273.672,288,288,273.641,288,255.969 S273.672,224,255.938,224z"/> 
<path d="M160,224c-17.688,0-32,14.297-32,31.969S142.312,288,160,288c17.656,0,32-14.359,32-32.031S177.656,224,160,224z"/> </g> </g>

</svg>